<?xml version="1.0" encoding="UTF-8"?>
<svg viewBox="0 0 720 114" version="1.1" xmlns="http://www.w3.org/2000/svg" xmlns:xlink="http://www.w3.org/1999/xlink">
    <!-- Generator: Sketch 49 (51002) - http://www.bohemiancoding.com/sketch -->
    <title>logo</title>
    <desc>Created with Sketch.</desc>
    <defs></defs>
    <g id="Page-1" stroke="none" stroke-width="1" fill="none" fill-rule="evenodd">
        <g id="Group-3" fill="#FFFFFF">
            <g id="logo">
                <g id="containerlessSvgTemplate">
                    <g id="Group">
                        <path d="M81.2435977,81.2435977 C72.4100055,90.07719 63.0355811,97.7389792 53.7512953,103.868411 C54.8329597,103.958549 55.9146241,103.958549 56.9962884,103.958549 C82.956233,103.958549 103.958549,82.956233 103.958549,56.9962884 C103.958549,55.9146241 103.958549,54.8329597 103.868411,53.7512953 C97.7389792,63.0355811 90.07719,72.4100055 81.2435977,81.2435977 L81.2435977,81.2435977 Z M109.639496,4.31785392 C102.403434,-2.92189169 87.5695066,-1.02145847 68.9366467,9.74766314 C68.3939421,10.0191536 68.032139,10.5621345 67.9416882,11.1051154 C66.4944758,10.7431282 65.0472634,10.4716377 63.600051,10.2906441 C61.4292323,10.0191536 59.2584137,9.83815996 56.9971443,9.83815996 C30.9473208,9.83815996 9.87229004,30.9239191 9.87229004,56.9870033 C9.87229004,59.2494238 10.0531916,61.4213475 10.3245439,63.5932712 C10.5054455,65.0412203 10.7767978,66.4891694 11.1386009,67.9371185 C10.5958962,68.1181122 10.0531916,68.4800994 9.78183926,68.9325835 C-0.981803078,87.5749285 -2.97172015,102.416407 4.3547927,109.656153 C7.24921753,112.552051 11.3195025,114 16.3847459,114 C24.0730619,114 33.8417457,110.742114 45.0576419,104.226343 C56.0926365,97.8010692 67.5798851,88.841884 78.2530767,78.1632592 C88.8358174,67.5751312 97.880895,56.0820351 104.3029,44.9509262 C114.976092,26.3990781 116.966009,11.5575995 109.639496,4.31785392 L109.639496,4.31785392 Z M100.194714,42.4414176 C93.9457607,53.214946 85.2515646,64.4411436 74.8366422,74.7620028 C64.4217198,85.1733958 53.2822811,93.8646456 42.5051005,100.111481 C26.2034828,109.527002 12.709366,111.880882 7.09436436,106.267783 C1.75105635,100.835752 3.74347629,88.070479 12.2565433,72.5891903 C12.8904951,74.3998674 13.6150114,76.1200106 14.5206569,77.8401537 C19.048884,86.893539 26.4751765,94.3173148 35.5316307,98.8440074 C37.0712279,98.0292028 38.7013897,97.2143981 40.3315515,96.3090596 C50.7464739,90.3338253 61.614219,81.7331094 71.6668832,71.6838518 C81.810112,61.5440604 90.323179,50.770532 96.3004388,40.359139 C97.2966488,38.7295296 98.1117296,37.0999203 98.836246,35.5608448 C94.3080188,26.5074596 86.8817264,19.0836837 77.8252721,14.5569911 C76.1045458,13.7421864 74.3838195,12.9273818 72.5725286,12.2936448 C88.0590654,3.78346269 100.828666,1.70118409 106.262538,7.13321522 C111.87754,12.6557802 109.522862,26.235858 100.194714,42.4414176 L100.194714,42.4414176 Z" id="Shape"></path>
                    </g>
                </g>
            </g>
            <path d="M148.136,94.896 C144.03998,94.896 139.96002,94.1440075 135.896,92.64 C131.83198,91.1359925 128.200016,88.880015 125,85.872 L133.064,76.176 C135.304011,78.0960096 137.783986,79.6639939 140.504,80.88 C143.224014,82.0960061 145.895987,82.704 148.52,82.704 C151.464015,82.704 153.655993,82.1600054 155.096,81.072 C156.536007,79.9839946 157.256,78.5120093 157.256,76.656 C157.256,75.6959952 157.048002,74.8640035 156.632,74.16 C156.215998,73.4559965 155.608004,72.8320027 154.808,72.288 C154.007996,71.7439973 153.048006,71.2320024 151.928,70.752 L148.232,69.168 L140.072,65.712 C138.471992,65.0719968 136.920008,64.2400051 135.416,63.216 C133.911992,62.1919949 132.568006,60.9920069 131.384,59.616 C130.199994,58.2399931 129.256004,56.6400091 128.552,54.816 C127.847996,52.9919909 127.496,50.9280115 127.496,48.624 C127.496,46.0639872 128.039995,43.6480114 129.128,41.376 C130.216005,39.1039886 131.75199,37.1200085 133.736,35.424 C135.72001,33.7279915 138.071986,32.4000048 140.792,31.44 C143.512014,30.4799952 146.503984,30 149.768,30 C153.416018,30 157.015982,30.703993 160.568,32.112 C164.120018,33.520007 167.239987,35.5679866 169.928,38.256 L162.728,47.184 C160.67999,45.583992 158.63201,44.3520043 156.584,43.488 C154.53599,42.6239957 152.264012,42.192 149.768,42.192 C147.335988,42.192 145.400007,42.687995 143.96,43.68 C142.519993,44.672005 141.8,46.063991 141.8,47.856 C141.8,48.8160048 142.039998,49.6319966 142.52,50.304 C143.000002,50.9760034 143.671996,51.5839973 144.536,52.128 C145.400004,52.6720027 146.407994,53.1839976 147.56,53.664 C148.712006,54.1440024 149.959993,54.6719971 151.304,55.248 L159.368,58.512 C163.208019,60.0480077 166.231989,62.1599866 168.44,64.848 C170.648011,67.5360134 171.752,71.0879779 171.752,75.504 C171.752,78.1280131 171.224005,80.6079883 170.168,82.944 C169.111995,85.2800117 167.57601,87.3279912 165.56,89.088 C163.54399,90.8480088 161.064015,92.2559947 158.12,93.312 C155.175985,94.3680053 151.848019,94.896 148.136,94.896 Z M207.08,94.896 C198.951959,94.896 192.744021,92.496024 188.456,87.696 C184.167979,82.895976 182.024,75.2480525 182.024,64.752 L182.024,31.152 L196.232,31.152 L196.232,66.192 C196.232,72.3360307 197.159991,76.6239878 199.016,79.056 C200.872009,81.4880122 203.559982,82.704 207.08,82.704 C210.600018,82.704 213.31999,81.4880122 215.24,79.056 C217.16001,76.6239878 218.12,72.3360307 218.12,66.192 L218.12,31.152 L231.752,31.152 L231.752,64.752 C231.752,75.2480525 229.656021,82.895976 225.464,87.696 C221.271979,92.496024 215.14404,94.896 207.08,94.896 Z M246.248,93.744 L246.248,31.152 L267.752,31.152 C271.208017,31.152 274.439985,31.4879966 277.448,32.16 C280.456015,32.8320034 283.079989,33.9519922 285.32,35.52 C287.560011,37.0880078 289.335993,39.167987 290.648,41.76 C291.960007,44.352013 292.616,47.5359811 292.616,51.312 C292.616,54.9600182 291.960007,58.1279866 290.648,60.816 C289.335993,63.5040134 287.560011,65.7119914 285.32,67.44 C283.079989,69.1680086 280.488015,70.4479958 277.544,71.28 C274.599985,72.1120042 271.464017,72.528 268.136,72.528 L260.36,72.528 L260.36,93.744 L246.248,93.744 Z M260.36,61.296 L267.272,61.296 C274.952038,61.296 278.792,57.9680333 278.792,51.312 C278.792,48.0479837 277.76801,45.7440067 275.72,44.4 C273.67199,43.0559933 270.728019,42.384 266.888,42.384 L260.36,42.384 L260.36,61.296 Z M303.464,93.744 L303.464,31.152 L342.632,31.152 L342.632,43.056 L317.576,43.056 L317.576,55.632 L338.888,55.632 L338.888,67.44 L317.576,67.44 L317.576,81.84 L343.592,81.84 L343.592,93.744 L303.464,93.744 Z M356.072,93.744 L356.072,31.152 L378.632,31.152 C381.960017,31.152 385.079985,31.4719968 387.992,32.112 C390.904015,32.7520032 393.447989,33.8239925 395.624,35.328 C397.800011,36.8320075 399.527994,38.8319875 400.808,41.328 C402.088006,43.8240125 402.728,46.9279814 402.728,50.64 C402.728,55.248023 401.72001,59.0399851 399.704,62.016 C397.68799,64.9920149 394.984017,67.2159926 391.592,68.688 L405.8,93.744 L389.96,93.744 L377.96,71.184 L370.184,71.184 L370.184,93.744 L356.072,93.744 Z M370.184,59.952 L377.48,59.952 C381.192019,59.952 384.02399,59.1680078 385.976,57.6 C387.92801,56.0319922 388.904,53.7120154 388.904,50.64 C388.904,47.5679846 387.92801,45.4240061 385.976,44.208 C384.02399,42.9919939 381.192019,42.384 377.48,42.384 L370.184,42.384 L370.184,59.952 Z" id="super"></path>
            <path d="M436.434426,95.568 C432.88796,95.568 429.612037,94.7840078 426.606557,93.216 C423.601078,91.6479922 421.016404,89.4240144 418.852459,86.544 C416.688514,83.6639856 415.00547,80.1920203 413.803279,76.128 C412.601087,72.0639797 412,67.536025 412,62.544 C412,57.551975 412.601087,53.05602 413.803279,49.056 C415.00547,45.05598 416.688514,41.6320142 418.852459,38.784 C421.016404,35.9359858 423.601078,33.7600075 426.606557,32.256 C429.612037,30.7519925 432.88796,30 436.434426,30 C440.041002,30 443.34698,30.7519925 446.352459,32.256 C449.357939,33.7600075 451.942612,35.9359858 454.106557,38.784 C456.270503,41.6320142 457.953546,45.05598 459.155738,49.056 C460.35793,53.05602 460.959016,57.551975 460.959016,62.544 C460.959016,67.536025 460.35793,72.0639797 459.155738,76.128 C457.953546,80.1920203 456.270503,83.6639856 454.106557,86.544 C451.942612,89.4240144 449.357939,91.6479922 446.352459,93.216 C443.34698,94.7840078 440.041002,95.568 436.434426,95.568 Z M436.434426,91.536 C439.439906,91.536 442.174851,90.8480069 444.639344,89.472 C447.103837,88.0959931 449.222669,86.1440126 450.995902,83.616 C452.769135,81.0879874 454.136607,78.0480178 455.098361,74.496 C456.060114,70.9439822 456.540984,66.9600221 456.540984,62.544 C456.540984,58.1919782 456.060114,54.2560176 455.098361,50.736 C454.136607,47.2159824 452.769135,44.2240123 450.995902,41.76 C449.222669,39.2959877 447.103837,37.3920067 444.639344,36.048 C442.174851,34.7039933 439.439906,34.032 436.434426,34.032 C433.428947,34.032 430.678974,34.7039933 428.184426,36.048 C425.689878,37.3920067 423.571047,39.2959877 421.827869,41.76 C420.084691,44.2240123 418.732245,47.2159824 417.770492,50.736 C416.808738,54.2560176 416.327869,58.1919782 416.327869,62.544 C416.327869,66.9600221 416.808738,70.9439822 417.770492,74.496 C418.732245,78.0480178 420.084691,81.0879874 421.827869,83.616 C423.571047,86.1440126 425.689878,88.0959931 428.184426,89.472 C430.678974,90.8480069 433.428947,91.536 436.434426,91.536 Z M474.57377,94.416 L474.57377,31.152 L491.614754,31.152 C494.560124,31.152 497.234961,31.455997 499.639344,32.064 C502.043728,32.672003 504.087423,33.6479933 505.770492,34.992 C507.45356,36.3360067 508.760924,38.0639894 509.692623,40.176 C510.624322,42.2880106 511.090164,44.847985 511.090164,47.856 C511.090164,52.9120253 509.722691,56.8799856 506.987705,59.76 C504.252719,62.6400144 500.541007,64.3999968 495.852459,65.04 L512.262295,94.416 L507.483607,94.416 L491.344262,65.328 L478.721311,65.328 L478.721311,94.416 L474.57377,94.416 Z M478.721311,61.68 L490.532787,61.68 C495.822431,61.68 499.86474,60.5440114 502.659836,58.272 C505.454932,55.9999886 506.852459,52.5280234 506.852459,47.856 C506.852459,43.1199763 505.439905,39.7760098 502.614754,37.824 C499.789603,35.8719902 495.762321,34.896 490.532787,34.896 L478.721311,34.896 L478.721311,61.68 Z M523.622951,94.416 L523.622951,31.152 L539.672131,31.152 C545.68309,31.152 550.461731,32.3839877 554.008197,34.848 C557.554663,37.3120123 559.327869,41.1999734 559.327869,46.512 C559.327869,49.8400166 558.546456,52.7359877 556.983607,55.2 C555.420757,57.6640123 553.136627,59.3759952 550.131148,60.336 L550.131148,60.72 C553.978161,61.4240035 557.073759,63.0399874 559.418033,65.568 C561.762307,68.0960126 562.934426,71.5679779 562.934426,75.984 C562.934426,79.0560154 562.408475,81.7439885 561.356557,84.048 C560.30464,86.3520115 558.81695,88.2719923 556.893443,89.808 C554.969936,91.3440077 552.655751,92.4959962 549.95082,93.264 C547.245888,94.0320038 544.210399,94.416 540.844262,94.416 L523.622951,94.416 Z M527.770492,58.992 L538.04918,58.992 C544.120249,58.992 548.493156,57.9200107 551.168033,55.776 C553.84291,53.6319893 555.180328,50.7040186 555.180328,46.992 C555.180328,42.5119776 553.767774,39.3600091 550.942623,37.536 C548.117472,35.7119909 543.969973,34.8 538.5,34.8 L527.770492,34.8 L527.770492,58.992 Z M527.770492,90.768 L539.762295,90.768 C545.713145,90.768 550.386595,89.5840118 553.782787,87.216 C557.178979,84.8479882 558.877049,81.1360253 558.877049,76.08 C558.877049,71.471977 557.22406,68.0800109 553.918033,65.904 C550.612005,63.7279891 545.893473,62.64 539.762295,62.64 L527.770492,62.64 L527.770492,90.768 Z M575.737705,94.416 L575.737705,31.152 L579.885246,31.152 L579.885246,94.416 L575.737705,94.416 Z M610.180328,94.416 L610.180328,34.992 L591.245902,34.992 L591.245902,31.152 L633.262295,31.152 L633.262295,34.992 L614.327869,34.992 L614.327869,94.416 L610.180328,94.416 Z M649.221311,57.168 L645.434426,68.976 L666.532787,68.976 L662.745902,57.168 C661.54371,53.3919811 660.401645,49.7760173 659.319672,46.32 C658.2377,42.8639827 657.185797,39.1840195 656.163934,35.28 L655.803279,35.28 C654.781416,39.1840195 653.729514,42.8639827 652.647541,46.32 C651.565568,49.7760173 650.423503,53.3919811 649.221311,57.168 Z M632.991803,94.416 L653.909836,31.152 L658.057377,31.152 L678.97541,94.416 L674.647541,94.416 L667.704918,72.72 L644.172131,72.72 L637.139344,94.416 L632.991803,94.416 Z M688.442623,94.416 L688.442623,31.152 L692.590164,31.152 L692.590164,90.576 L720,90.576 L720,94.416 L688.442623,94.416 Z" id="orbital"></path>
        </g>
    </g>
</svg>
