<?xml version="1.0" encoding="utf-8"?>
<!-- Generator: Adobe Illustrator 16.0.0, SVG Export Plug-In . SVG Version: 6.00 Build 0)  -->
<!DOCTYPE svg PUBLIC "-//W3C//DTD SVG 1.1//EN" "http://www.w3.org/Graphics/SVG/1.1/DTD/svg11.dtd">
<svg version="1.1" id="Layer_1" xmlns="http://www.w3.org/2000/svg" xmlns:xlink="http://www.w3.org/1999/xlink" x="0px" y="0px"
	 width="236.7px" height="65.464px" viewBox="0 0 236.7 65.464" enable-background="new 0 0 236.7 65.464" xml:space="preserve">
<polygon fill="#FFFFFF" points="82.133,44.13 77.196,44.13 77.196,21.304 68.493,21.304 68.493,17.173 90.815,17.173 90.815,21.304 
	82.133,21.304 "/>
<g>
	<defs>
		<rect id="SVGID_1_" width="236.7" height="65.464"/>
	</defs>
	<clipPath id="SVGID_2_">
		<use xlink:href="#SVGID_1_"  overflow="visible"/>
	</clipPath>
	<path clip-path="url(#SVGID_2_)" fill="#FFFFFF" d="M101.474,40.785c0.927,0,1.894-0.093,2.901-0.282
		c1.006-0.188,2.027-0.456,3.062-0.806v3.808c-0.618,0.27-1.563,0.524-2.84,0.767c-1.276,0.24-2.599,0.361-3.97,0.361
		c-1.383,0-2.696-0.178-3.938-0.533c-1.243-0.355-2.327-0.93-3.254-1.723c-0.927-0.792-1.662-1.82-2.206-3.083
		c-0.544-1.262-0.816-2.793-0.816-4.593c0-1.773,0.256-3.324,0.767-4.654c0.51-1.33,1.194-2.431,2.055-3.304
		c0.859-0.873,1.843-1.528,2.951-1.965s2.253-0.654,3.435-0.654c1.236,0,2.375,0.188,3.416,0.564s1.94,0.967,2.699,1.772
		c0.76,0.807,1.35,1.843,1.773,3.113c0.423,1.269,0.635,2.77,0.635,4.502c-0.014,0.672-0.034,1.243-0.061,1.713H95.289
		c0.066,0.9,0.268,1.669,0.604,2.307c0.336,0.639,0.775,1.155,1.32,1.552c0.543,0.396,1.178,0.685,1.904,0.865
		C99.842,40.695,100.627,40.785,101.474,40.785 M99.56,27.852c-0.604,0-1.142,0.11-1.612,0.332c-0.47,0.222-0.875,0.523-1.219,0.906
		c-0.342,0.383-0.613,0.83-0.816,1.34c-0.201,0.511-0.336,1.055-0.402,1.633h7.676c0-0.578-0.077-1.122-0.23-1.633
		c-0.155-0.51-0.383-0.957-0.686-1.34s-0.679-0.685-1.129-0.906S100.164,27.852,99.56,27.852"/>
	<path clip-path="url(#SVGID_2_)" fill="#FFFFFF" d="M126.637,43.707c-0.604,0.255-1.343,0.474-2.216,0.654
		c-0.873,0.182-1.793,0.272-2.76,0.272c-1.41,0-2.728-0.202-3.949-0.605c-1.222-0.402-2.29-1.014-3.203-1.833
		c-0.914-0.818-1.632-1.856-2.155-3.112c-0.524-1.255-0.787-2.724-0.787-4.402c0-1.88,0.303-3.492,0.908-4.835
		c0.604-1.343,1.385-2.434,2.346-3.274c0.961-0.839,2.041-1.457,3.244-1.853c1.201-0.396,2.388-0.595,3.557-0.595
		c0.872,0,1.712,0.078,2.518,0.231c0.807,0.154,1.538,0.366,2.196,0.635v3.889c-0.591-0.255-1.219-0.46-1.884-0.614
		c-0.665-0.155-1.381-0.231-2.145-0.231c-0.767,0-1.498,0.116-2.197,0.352c-0.698,0.235-1.316,0.608-1.854,1.118
		c-0.537,0.511-0.964,1.186-1.279,2.024c-0.315,0.841-0.474,1.852-0.474,3.032c0,0.86,0.121,1.669,0.363,2.428
		c0.241,0.76,0.594,1.407,1.057,1.944c0.464,0.538,1.056,0.971,1.774,1.3c0.718,0.329,1.566,0.493,2.548,0.493
		c0.873,0,1.665-0.087,2.377-0.262c0.712-0.174,1.384-0.39,2.015-0.645V43.707z"/>
	<path clip-path="url(#SVGID_2_)" fill="#FFFFFF" d="M135.744,22.915c0,1.007-0.018,1.837-0.051,2.488s-0.091,1.239-0.172,1.763
		h0.081c0.282-0.376,0.628-0.752,1.038-1.128c0.408-0.376,0.859-0.702,1.349-0.977c0.491-0.276,1.048-0.5,1.673-0.676
		c0.623-0.175,1.313-0.262,2.065-0.262c0.644,0,1.272,0.064,1.884,0.191c0.61,0.128,1.182,0.325,1.711,0.594
		c0.532,0.269,1.014,0.618,1.452,1.048c0.437,0.43,0.802,0.941,1.099,1.531c0.254,0.511,0.442,1.088,0.563,1.732
		c0.121,0.646,0.181,1.431,0.181,2.357V44.13h-4.775V32.223c0-0.604-0.027-1.098-0.08-1.48s-0.147-0.715-0.282-0.997
		c-0.282-0.591-0.685-1.008-1.209-1.249c-0.522-0.242-1.121-0.363-1.792-0.363c-0.928,0.015-1.784,0.235-2.568,0.665
		c-0.787,0.431-1.509,1.062-2.166,1.895V44.13h-4.775V14.957h4.775V22.915z"/>
	<polygon clip-path="url(#SVGID_2_)" fill="#FFFFFF" points="159.396,44.13 154.461,44.13 154.461,17.173 171.625,17.173 
		171.625,21.304 159.396,21.304 159.396,28.273 169.853,28.273 169.853,32.404 159.396,32.404 	"/>
	<rect x="175.555" y="14.957" clip-path="url(#SVGID_2_)" fill="#FFFFFF" width="4.773" height="29.173"/>
	<path clip-path="url(#SVGID_2_)" fill="#FFFFFF" d="M204.385,34.379c0,1.531-0.229,2.928-0.686,4.189
		c-0.457,1.264-1.111,2.345-1.964,3.244c-0.853,0.9-1.884,1.596-3.093,2.085c-1.209,0.49-2.559,0.736-4.049,0.736
		c-1.532,0-2.905-0.246-4.121-0.736c-1.215-0.489-2.246-1.185-3.094-2.085c-0.846-0.899-1.493-1.98-1.943-3.244
		c-0.45-1.262-0.675-2.658-0.675-4.189s0.229-2.928,0.685-4.191c0.457-1.262,1.112-2.343,1.965-3.242
		c0.854-0.9,1.885-1.596,3.094-2.086s2.558-0.735,4.049-0.735c1.531,0,2.904,0.245,4.119,0.735c1.216,0.49,2.246,1.186,3.093,2.086
		c0.847,0.899,1.494,1.98,1.944,3.242C204.158,31.451,204.385,32.848,204.385,34.379 M199.447,34.379
		c0-1.034-0.121-1.947-0.361-2.74c-0.241-0.792-0.578-1.457-1.008-1.995c-0.43-0.537-0.947-0.938-1.551-1.208
		c-0.605-0.269-1.264-0.402-1.975-0.402c-0.699,0-1.348,0.134-1.944,0.402c-0.598,0.27-1.112,0.671-1.542,1.208
		c-0.43,0.538-0.765,1.203-1.007,1.995c-0.242,0.793-0.362,1.706-0.362,2.74s0.12,1.948,0.362,2.74
		c0.242,0.793,0.581,1.454,1.017,1.983c0.438,0.531,0.955,0.935,1.553,1.209c0.597,0.276,1.252,0.413,1.965,0.413
		c0.711,0,1.363-0.137,1.953-0.413c0.591-0.274,1.102-0.678,1.531-1.209c0.43-0.529,0.767-1.19,1.008-1.983
		C199.326,36.327,199.447,35.413,199.447,34.379"/>
</g>
<g>
	<defs>
		<rect id="SVGID_3_" x="0.008" width="236.692" height="65.463"/>
	</defs>
	<clipPath id="SVGID_4_">
		<use xlink:href="#SVGID_3_"  overflow="visible"/>
	</clipPath>
	<path clip-path="url(#SVGID_4_)" fill="#FFFFFF" d="M221.408,29.906c-0.376,1.948-0.819,3.835-1.33,5.661l-2.355,8.563h-4.695
		l-6.83-19.522h5.037l2.519,8.18c0.577,1.894,1.088,3.727,1.531,5.5h0.08c0.376-1.719,0.825-3.552,1.351-5.5l2.236-8.18h5.036
		l2.196,8.18c0.471,1.733,0.92,3.566,1.35,5.5h0.08c0.457-1.813,0.968-3.646,1.531-5.5l2.52-8.18h5.037L229.87,44.13h-4.694
		l-2.357-8.563c-0.536-1.92-0.979-3.808-1.329-5.661H221.408z"/>
	<polygon clip-path="url(#SVGID_4_)" fill="#B31F63" points="8.739,44.54 -0.001,18.931 7.353,4.396 31.277,0 	"/>
	<polygon clip-path="url(#SVGID_4_)" fill="#EC227F" points="4.853,43.131 0,18.931 31.359,34.904 35.691,58.839 	"/>
</g>
<g>
	<defs>
		<rect id="SVGID_5_" width="236.7" height="65.464"/>
	</defs>
	<clipPath id="SVGID_6_">
		<use xlink:href="#SVGID_5_"  overflow="visible"/>
	</clipPath>
	<polygon clip-path="url(#SVGID_6_)" fill="#B31F63" points="57.054,20.925 65.794,46.534 58.44,61.069 34.517,65.464 	"/>
	<polygon clip-path="url(#SVGID_6_)" fill="#EC227F" points="60.941,22.334 65.794,46.534 34.434,30.561 30.102,6.626 	"/>
</g>
</svg>
